<?xml version="1.0" encoding="utf-8"?>
<!-- Generator: Adobe Illustrator 24.3.0, SVG Export Plug-In . SVG Version: 6.00 Build 0)  -->
<svg version="1.1" id="レイヤー_1" xmlns="http://www.w3.org/2000/svg" xmlns:xlink="http://www.w3.org/1999/xlink" x="0px"
	 y="0px" viewBox="0 0 24 24" style="enable-background:new 0 0 24 24;" xml:space="preserve">
<style type="text/css">
	.st0{fill:#FFFFFF;}
</style>
<path class="st0" d="M18,13.18V10c0-2.93-2.12-5.42-5-5.91V3c0-0.55-0.45-1-1-1s-1,0.45-1,1v1.09C8.12,4.58,6,7.07,6,10v3.18
	C4.8,13.6,4,14.73,4,16v2c0,0.55,0.45,1,1,1h3.14c0.58,2.13,2.78,3.39,4.91,2.81c1.37-0.37,2.44-1.44,2.81-2.81H19
	c0.55,0,1-0.45,1-1v-2C20,14.73,19.2,13.6,18,13.18z M8,10c0-2.21,1.79-4,4-4s4,1.79,4,4v3H8V10z M12,20c-0.71,0-1.36-0.38-1.72-1
	h3.44C13.36,19.62,12.71,20,12,20z M18,17H6v-1c0-0.55,0.45-1,1-1h10c0.55,0,1,0.45,1,1V17z"/>
</svg>
