<?xml version="1.0" encoding="utf-8"?>
<!-- Generator: Adobe Illustrator 24.3.0, SVG Export Plug-In . SVG Version: 6.00 Build 0)  -->
<svg version="1.1" id="レイヤー_1" xmlns="http://www.w3.org/2000/svg" xmlns:xlink="http://www.w3.org/1999/xlink" x="0px"
	 y="0px" viewBox="0 0 24 24" style="enable-background:new 0 0 24 24;" xml:space="preserve">
<style type="text/css">
	.st0{fill:#FFFFFF;}
</style>
<path class="st0" d="M16.5,13.9h-8c-0.6,0-1,0.4-1,1s0.4,1,1,1h8c0.6,0,1-0.4,1-1S17.1,13.9,16.5,13.9z M16.5,9.9h-6
	c-0.6,0-1,0.4-1,1s0.4,1,1,1h6c0.6,0,1-0.4,1-1S17.1,9.9,16.5,9.9z M20.5,3.9h-3v-1c0-0.6-0.4-1-1-1c-0.6,0-1,0.4-1,1v1h-2v-1
	c0-0.6-0.4-1-1-1s-1,0.4-1,1v1h-2v-1c0-0.6-0.4-1-1-1s-1,0.4-1,1v1h-3c-0.6,0-1,0.4-1,1v14c0,1.7,1.3,3,3,3h12c1.7,0,3-1.3,3-3v-14
	C21.5,4.3,21.1,3.9,20.5,3.9z M19.5,18.9c0,0.6-0.4,1-1,1h-12c-0.6,0-1-0.4-1-1v-13h2v1c0,0.6,0.4,1,1,1s1-0.4,1-1v-1h2v1
	c0,0.6,0.4,1,1,1s1-0.4,1-1v-1h2v1c0,0.6,0.4,1,1,1c0.6,0,1-0.4,1-1v-1h2V18.9z"/>
</svg>
