<?xml version="1.0" encoding="utf-8"?>
<!-- Generator: Adobe Illustrator 24.3.0, SVG Export Plug-In . SVG Version: 6.00 Build 0)  -->
<svg version="1.1" id="レイヤー_1" xmlns="http://www.w3.org/2000/svg" xmlns:xlink="http://www.w3.org/1999/xlink" x="0px"
	 y="0px" viewBox="0 0 24 24" style="enable-background:new 0 0 24 24;" xml:space="preserve">
<style type="text/css">
	.st0{fill:#FFFFFF;}
</style>
<path class="st0" d="M22,7c-0.3-0.2-0.7-0.2-1,0l-3.5,1.7c-0.1-1.6-1.4-2.9-3-2.9h-9c-1.7,0-3,1.3-3,3v6c0,1.7,1.3,3,3,3h9
	c1.6,0,2.9-1.3,3-2.9l3.6,1.8c0.1,0.1,0.3,0.1,0.4,0.1c0.2,0,0.4-0.1,0.5-0.1c0.3-0.2,0.5-0.5,0.5-0.9v-8C22.5,7.5,22.3,7.2,22,7z
	 M15.5,14.9c0,0.6-0.4,1-1,1h-9c-0.6,0-1-0.4-1-1v-6c0-0.6,0.4-1,1-1h9c0.6,0,1,0.4,1,1V14.9z M20.5,14.3l-3-1.5V11l3-1.5V14.3z"/>
</svg>
