<?xml version="1.0" encoding="utf-8"?>
<!-- Generator: Adobe Illustrator 24.3.0, SVG Export Plug-In . SVG Version: 6.00 Build 0)  -->
<svg version="1.1" id="レイヤー_1" xmlns="http://www.w3.org/2000/svg" xmlns:xlink="http://www.w3.org/1999/xlink" x="0px"
	 y="0px" viewBox="0 0 24 24" style="enable-background:new 0 0 24 24;" xml:space="preserve">
<style type="text/css">
	.st0{fill:#FFFFFF;}
</style>
<path class="st0" d="M12,2C9.44,2.01,6.97,3,5.12,4.77V3c0-0.55-0.45-1-1-1s-1,0.45-1,1v4.5c0,0.55,0.45,1,1,1h4.5
	c0.55,0,1-0.45,1-1s-0.45-1-1-1h-2.4c3.05-3.19,8.12-3.3,11.31-0.25s3.3,8.12,0.25,11.31s-8.12,3.3-11.31,0.25
	C4.88,16.29,3.99,14.19,4,12c0-0.55-0.45-1-1-1s-1,0.45-1,1c0,5.52,4.48,10,10,10s10-4.48,10-10S17.52,2,12,2z M12,8
	c-0.55,0-1,0.45-1,1v3c0,0.55,0.45,1,1,1h2c0.55,0,1-0.45,1-1s-0.45-1-1-1h-1V9C13,8.45,12.55,8,12,8z"/>
</svg>
