<?xml version="1.0" encoding="utf-8"?>
<!-- Generator: Adobe Illustrator 24.3.0, SVG Export Plug-In . SVG Version: 6.00 Build 0)  -->
<svg version="1.1" id="レイヤー_1" xmlns="http://www.w3.org/2000/svg" xmlns:xlink="http://www.w3.org/1999/xlink" x="0px"
	 y="0px" viewBox="0 0 24 24" style="enable-background:new 0 0 24 24;" xml:space="preserve">
<style type="text/css">
	.st0{fill:#222222;}
</style>
<path class="st0" d="M7,2.25H3C2.59,2.26,2.26,2.59,2.25,3v4C2.26,7.41,2.59,7.74,3,7.75h4C7.41,7.74,7.74,7.41,7.75,7V3
	C7.74,2.59,7.41,2.26,7,2.25z M6.25,6.25h-2.5v-2.5h2.5V6.25z M21,2.25h-4C16.59,2.26,16.26,2.59,16.25,3v4
	c0.01,0.41,0.34,0.74,0.75,0.75h4c0.41-0.01,0.74-0.34,0.75-0.75V3C21.74,2.59,21.41,2.26,21,2.25z M20.25,6.25h-2.5v-2.5h2.5V6.25z
	 M14,2.25h-4C9.59,2.26,9.26,2.59,9.25,3v4C9.26,7.41,9.59,7.74,10,7.75h4c0.41-0.01,0.74-0.34,0.75-0.75V3
	C14.74,2.59,14.41,2.26,14,2.25z M13.25,6.25h-2.5v-2.5h2.5V6.25z M7,9.25H3C2.59,9.26,2.26,9.59,2.25,10v4
	c0.01,0.41,0.34,0.74,0.75,0.75h4c0.41-0.01,0.74-0.34,0.75-0.75v-4C7.74,9.59,7.41,9.26,7,9.25z M6.25,13.25h-2.5v-2.5h2.5V13.25z
	 M14,9.25h-4C9.59,9.26,9.26,9.59,9.25,10v4c0.01,0.41,0.34,0.74,0.75,0.75h4c0.41-0.01,0.74-0.34,0.75-0.75v-4
	C14.74,9.59,14.41,9.26,14,9.25z M13.25,13.25h-2.5v-2.5h2.5V13.25z M21,9.25h-4c-0.41,0.01-0.74,0.34-0.75,0.75v4
	c0.01,0.41,0.34,0.74,0.75,0.75h4c0.41-0.01,0.74-0.34,0.75-0.75v-4C21.74,9.59,21.41,9.26,21,9.25z M20.25,13.25h-2.5v-2.5h2.5
	V13.25z M14,16.25h-4C9.59,16.26,9.26,16.59,9.25,17v4c0.01,0.41,0.34,0.74,0.75,0.75h4c0.41-0.01,0.74-0.34,0.75-0.75v-4
	C14.74,16.59,14.41,16.26,14,16.25z M13.25,20.25h-2.5v-2.5h2.5V20.25z"/>
</svg>
