<?xml version="1.0" encoding="utf-8"?>
<!-- Generator: Adobe Illustrator 24.3.0, SVG Export Plug-In . SVG Version: 6.00 Build 0)  -->
<svg version="1.1" id="レイヤー_1" xmlns="http://www.w3.org/2000/svg" xmlns:xlink="http://www.w3.org/1999/xlink" x="0px"
	 y="0px" viewBox="0 0 1920 307.17" style="enable-background:new 0 0 1920 307.17;" xml:space="preserve">
<style type="text/css">
	.st0{display:none;fill:#FF0000;}
	.st1{display:none;}
	.st2{display:inline;}
	.st3{fill:#2E3192;}
	.st4{display:none;fill:#2E3192;}
	.st5{fill:#222222;}
	.st6{fill:#00C2B2;}
</style>
<rect x="1110.22" y="71.31" class="st0" width="30.78" height="184.43"/>
<rect x="1258.63" y="71.31" class="st0" width="30.78" height="184.43"/>
<g class="st1">
	<g class="st2">
		<rect x="1110.22" y="71.31" class="st3" width="3.08" height="184.43"/>
		<rect x="1113.29" y="71.31" class="st3" width="3.08" height="184.43"/>
		<rect x="1116.37" y="71.31" class="st3" width="3.08" height="184.43"/>
		<rect x="1119.45" y="71.31" class="st3" width="3.08" height="184.43"/>
		<rect x="1122.53" y="71.31" class="st3" width="3.08" height="184.43"/>
	</g>
	<g class="st2">
		<rect x="1125.61" y="71.31" class="st3" width="3.08" height="184.43"/>
		<rect x="1128.69" y="71.31" class="st3" width="3.08" height="184.43"/>
		<rect x="1131.76" y="71.31" class="st3" width="3.08" height="184.43"/>
		<rect x="1134.84" y="71.31" class="st3" width="3.08" height="184.43"/>
		<rect x="1137.92" y="71.31" class="st3" width="3.08" height="184.43"/>
	</g>
</g>
<rect x="611.98" y="71.31" class="st0" width="30.78" height="184.43"/>
<rect x="730.94" y="71.31" class="st0" width="30.78" height="184.43"/>
<rect x="883.76" y="71.31" class="st0" width="30.78" height="184.43"/>
<rect x="1141" y="71.31" class="st4" width="3.08" height="184.43"/>
<rect x="1144.08" y="71.31" class="st4" width="3.08" height="184.43"/>
<rect x="1286.31" y="71.31" class="st4" width="3.08" height="184.43"/>
<rect x="1289.41" y="71.31" class="st4" width="3.08" height="184.43"/>
<rect x="914.54" y="71.31" class="st4" width="3.08" height="184.43"/>
<rect x="761.73" y="71.31" class="st4" width="3.08" height="184.43"/>
<rect x="642.77" y="71.31" class="st4" width="3.08" height="184.43"/>
<g>
	<path class="st5" d="M231,15.13H14.49c-2.34,0-4.23,1.89-4.23,4.23v55.36c0,2.34,1.89,4.23,4.23,4.23h71.6v208.87
		c0,2.34,1.89,4.23,4.23,4.23h64.83c2.34,0,4.23-1.89,4.23-4.23V78.95H231c2.34,0,4.23-1.89,4.23-4.23V19.36
		C235.24,17.02,233.34,15.13,231,15.13z"/>
	<path class="st5" d="M499.42,228.23H378.55v-47.28H485.8c2.34,0,4.23-1.89,4.23-4.23v-51.95c0-2.34-1.89-4.23-4.23-4.23H378.55
		V78.19h120.87c2.34,0,4.23-1.89,4.23-4.23v-54.6c0-2.34-1.89-4.23-4.23-4.23H311.76c-2.34,0-4.23,1.89-4.23,4.23v268.45
		c0,2.34,1.89,4.23,4.23,4.23h187.66c2.34,0,4.23-1.89,4.23-4.23v-55.36C503.65,230.12,501.76,228.23,499.42,228.23z"/>
	<path class="st5" d="M773.13,205.11c-0.89-0.83-2.09-1.24-3.31-1.13c-1.21,0.12-2.32,0.75-3.03,1.74
		c-5.4,7.52-12.69,13.72-21.66,18.44c-8.94,4.71-19.63,7.1-31.78,7.1c-10.5,0-20.26-1.92-29.03-5.72
		c-8.75-3.78-16.38-9.12-22.66-15.87c-6.3-6.77-11.3-15.03-14.87-24.58c-3.59-9.57-5.42-20.3-5.42-31.88
		c0-11.32,1.82-21.85,5.41-31.3c3.56-9.4,8.63-17.68,15.06-24.59c6.4-6.87,14.16-12.34,23.06-16.26c8.9-3.92,18.86-5.9,29.59-5.9
		c9.74,0,19.41,1.94,28.73,5.75c9.07,3.73,16.49,9.5,22.07,17.15c0.73,1,1.86,1.63,3.09,1.73c1.25,0.1,2.45-0.35,3.32-1.23
		l43.99-43.99c1.58-1.58,1.66-4.12,0.18-5.79c-11.8-13.37-27.37-23.65-46.27-30.55c-18.73-6.84-38.04-10.31-57.39-10.31
		c-20.89,0-40.64,3.41-58.73,10.12c-18.14,6.74-34.18,16.54-47.67,29.12c-13.53,12.62-24.26,28.1-31.91,45.98
		c-7.64,17.88-11.52,38.09-11.52,60.06c0,21.45,3.81,41.39,11.32,59.27c7.52,17.89,18.05,33.48,31.3,46.33
		c13.24,12.85,29.08,22.92,47.09,29.91c17.98,6.98,37.82,10.53,58.98,10.53c23.25,0,44.13-4.15,62.05-12.33
		c17.91-8.18,33.19-19.45,45.41-33.49c1.49-1.71,1.36-4.3-0.29-5.86L773.13,205.11z"/>
	<path class="st5" d="M1128.06,15.13h-64.84c-2.34,0-4.23,1.89-4.23,4.23v97.39h-96.18V19.36c0-2.34-1.89-4.23-4.23-4.23h-64.84
		c-2.34,0-4.23,1.89-4.23,4.23v268.45c0,2.34,1.89,4.23,4.23,4.23h64.84c2.34,0,4.23-1.89,4.23-4.23v-108h96.18l73.31-63.07V19.36
		C1132.3,17.02,1130.4,15.13,1128.06,15.13z"/>
	<path class="st6" d="M1615.25,15.13h-64.84c-2.34,0-4.23,1.89-4.23,4.23v161.91c0,6.9-0.84,13.55-2.51,19.75
		c-1.62,6-4.3,11.42-7.97,16.13c-3.61,4.63-8.39,8.36-14.2,11.1c-5.84,2.75-13.08,4.15-21.52,4.15c-8.43,0-15.67-1.39-21.52-4.15
		c-5.79-2.73-10.5-6.44-13.98-11.05c-3.58-4.73-6.28-10.2-8.03-16.25c-1.78-6.17-2.68-12.8-2.68-19.68V19.36
		c0-2.34-1.89-4.23-4.23-4.23h-64.46c-2.34,0-4.23,1.89-4.23,4.23v167.21c0,16.64,2.78,32.03,8.27,45.74
		c5.5,13.77,13.49,25.75,23.74,35.61c10.23,9.84,22.84,17.61,37.47,23.09c14.58,5.46,31.15,8.24,49.27,8.24
		c17.86,0,34.36-2.77,49.06-8.23c14.75-5.48,27.54-13.24,38.02-23.06c10.5-9.85,18.69-21.83,24.34-35.61
		c5.62-13.72,8.47-29.12,8.47-45.78V19.36C1619.49,17.02,1617.59,15.13,1615.25,15.13z"/>
	<path class="st6" d="M1905.06,184.21c-3.09-7.51-7.32-14.19-12.57-19.85c-5.25-5.65-11.51-10.35-18.62-13.98
		c-3.5-1.78-7.14-3.29-10.9-4.53c8.92-4.45,16.5-10.41,22.66-17.81c8.7-10.47,13.11-23.82,13.11-39.68c0-14.39-3.02-26.5-8.99-36
		c-5.9-9.39-13.66-16.94-23.06-22.44c-9.23-5.4-19.62-9.27-30.89-11.49c-11.11-2.19-22.1-3.3-32.67-3.3H1696.2
		c-2.34,0-4.23,1.89-4.23,4.23v268.45c0,2.34,1.89,4.23,4.23,4.23h106.93c13.13,0,26.12-1.37,38.63-4.08
		c12.69-2.75,24.18-7.34,34.16-13.64c10.14-6.4,18.39-14.99,24.52-25.53c6.17-10.59,9.29-23.75,9.29-39.1
		C1909.74,200.35,1908.17,191.78,1905.06,184.21z M1819.39,115.48c-5.93,4.36-14.6,6.57-25.75,6.57H1763v-46.9h27.62
		c12.81,0,22.47,1.9,28.73,5.66c5.64,3.38,8.37,8.71,8.37,16.28C1827.72,105.34,1824.99,111.36,1819.39,115.48z M1763,178.29h31.79
		c13.15,0,23.73,2.01,31.43,5.97c6.88,3.55,10.22,9.89,10.22,19.37c0,5.68-1.16,10.32-3.46,13.76c-2.4,3.6-5.42,6.3-9.22,8.26
		c-4.02,2.06-8.57,3.52-13.54,4.33c-5.16,0.84-10.23,1.27-15.05,1.27H1763V178.29z"/>
	<path class="st6" d="M1297.55,15.13h-64.84c-2.34,0-4.23,1.89-4.23,4.23v97.39h-96.18l-73.31,63.07v108c0,2.34,1.89,4.23,4.23,4.23
		h64.84c2.34,0,4.23-1.89,4.23-4.23v-108h96.18v108c0,2.34,1.89,4.23,4.23,4.23h64.84c2.34,0,4.23-1.89,4.23-4.23V19.36
		C1301.79,17.02,1299.89,15.13,1297.55,15.13z"/>
</g>
</svg>
